<?xml version="1.0" encoding="UTF-8"?>
<svg version="1.1" xmlns="http://www.w3.org/2000/svg" width="325" height="328">
<path d="M0 0 C0.79470703 0.20399414 1.58941406 0.40798828 2.40820312 0.61816406 C14.07345172 3.69338501 25.16045961 7.71275958 36 13 C36.63244629 13.30663574 37.26489258 13.61327148 37.91650391 13.92919922 C52.00167896 20.85509845 64.26210791 29.67095973 75.52783203 40.57910156 C77.0138435 42.01336139 78.51960083 43.42457776 80.02734375 44.8359375 C87.73987137 52.17064294 94.03738329 60.19928188 100 69 C100.72058594 70.05960937 101.44117188 71.11921875 102.18359375 72.2109375 C124.60443147 106.91297483 131.45398945 151.14388569 123.3203125 191.390625 C118.52354662 212.71449666 109.74715969 233.21447851 97 251 C96.59587891 251.56493164 96.19175781 252.12986328 95.77539062 252.71191406 C80.63492614 273.54472372 61.05169483 290.49604403 38 302 C37.30326172 302.34901367 36.60652344 302.69802734 35.88867188 303.05761719 C-2.77448336 322.07372028 -46.77080426 324.09213321 -87.56933594 310.83691406 C-93.91676594 308.65139879 -99.97576291 305.94926787 -106 303 C-106.62036133 302.70399902 -107.24072266 302.40799805 -107.87988281 302.10302734 C-122.51856466 295.05773351 -135.29532269 285.21779389 -147 274 C-147.86753906 273.195625 -148.73507813 272.39125 -149.62890625 271.5625 C-161.92916882 259.80463876 -171.25799276 246.08893658 -179 231 C-179.31807617 230.38833984 -179.63615234 229.77667969 -179.96386719 229.14648438 C-198.5574834 192.96956338 -201.6568353 148.55513429 -189.30859375 109.91796875 C-181.98401617 87.76125611 -171.10467306 68.73157272 -156 51 C-155.02004046 49.77146536 -154.0407173 48.54242234 -153.0625 47.3125 C-152.381875 46.549375 -151.70125 45.78625 -151 45 C-150.34 45 -149.68 45 -149 45 C-149 44.34 -149 43.68 -149 43 C-148.34 43 -147.68 43 -147 43 C-147 42.34 -147 41.68 -147 41 C-144.01581824 38.22142131 -140.78185803 35.7476269 -137.57324219 33.23339844 C-136.10688808 32.08379867 -134.65067712 30.92129341 -133.1953125 29.7578125 C-114.38971524 15.11966062 -93.16642608 5.39556572 -70 0 C-69.34402832 -0.16371094 -68.68805664 -0.32742188 -68.01220703 -0.49609375 C-47.12663168 -5.56942799 -20.78728227 -5.43414042 0 0 Z M-92.8125 109.0625 C-94.65965873 112.07628529 -95.12600097 114.58372331 -95.14044189 118.04084778 C-95.14615204 118.86088791 -95.15186218 119.68092804 -95.15774536 120.52581787 C-95.15886322 121.42197815 -95.15998108 122.31813843 -95.16113281 123.24145508 C-95.16609772 124.18810532 -95.17106262 125.13475555 -95.17617798 126.11009216 C-95.19080111 129.24657922 -95.19760196 132.38301569 -95.203125 135.51953125 C-95.20887644 137.69805401 -95.21463417 139.87657676 -95.22039795 142.05509949 C-95.23090844 146.62568396 -95.23675076 151.19625084 -95.24023438 155.7668457 C-95.24571842 161.62126842 -95.26974449 167.47545848 -95.29820633 173.32980824 C-95.31683734 177.83111753 -95.32203857 182.33237084 -95.32357025 186.83371544 C-95.32659638 188.99186156 -95.33462354 191.15000671 -95.34775543 193.30811501 C-95.3648249 196.3290434 -95.3629333 199.34940417 -95.35644531 202.37036133 C-95.3656601 203.26044891 -95.37487488 204.1505365 -95.3843689 205.06759644 C-95.35031781 210.13323401 -94.81295842 213.61217141 -92 218 C-87.84389765 221.9429689 -84.58277288 223.12001123 -78.95951843 223.13371277 C-78.16479126 223.13797775 -77.37006409 223.14224274 -76.55125427 223.14663696 C-75.25684166 223.14595718 -75.25684166 223.14595718 -73.9362793 223.14526367 C-73.02035004 223.14862228 -72.10442078 223.1519809 -71.16073608 223.15544128 C-68.13188318 223.16494233 -65.10308563 223.16689405 -62.07421875 223.16796875 C-59.96678138 223.17118219 -57.85934424 223.17454633 -55.75190735 223.17805481 C-51.33272789 223.18404415 -46.91356799 223.18589494 -42.49438477 223.18530273 C-36.8385569 223.18520119 -31.18285478 223.19884675 -25.52705669 223.21607494 C-21.17325772 223.22720784 -16.81948901 223.22922153 -12.46567726 223.22869301 C-10.38093444 223.22987143 -8.2961908 223.23428547 -6.21146202 223.24202538 C-3.2915206 223.25185007 -0.37185032 223.24893724 2.5480957 223.24291992 C3.40496475 223.24853943 4.2618338 223.25415894 5.14466858 223.25994873 C10.55793963 223.23167896 16.34120121 223.14015418 20.7421875 219.59765625 C24.9210392 213.93459171 25.15248391 209.71532325 25.16113281 202.86621094 C25.16609772 201.93092056 25.17106262 200.99563019 25.17617798 200.03199768 C25.19080193 196.93278267 25.1976025 193.83361887 25.203125 190.734375 C25.20887688 188.58066812 25.21463461 186.42696125 25.22039795 184.27325439 C25.23090903 179.75394451 25.23675079 175.23465242 25.24023438 170.71533203 C25.24571502 164.93050867 25.26973357 159.14592118 25.29820633 153.36117172 C25.31685177 148.91043415 25.32203936 144.45975313 25.32357025 140.0089798 C25.3265937 137.87677981 25.33461182 135.74458075 25.34775543 133.61241913 C25.36485322 130.62522071 25.36292627 127.638595 25.35644531 124.65136719 C25.3656601 123.77422562 25.37487488 122.89708405 25.3843689 121.99336243 C25.34761853 116.57261695 24.57543654 112.79983023 22 108 C18.18792789 104.3785315 15.15027506 102.88388715 9.92118835 102.85282898 C9.09273407 102.84567368 8.26427979 102.83851837 7.41072083 102.83114624 C6.50520981 102.82845734 5.59969879 102.82576843 4.66674805 102.82299805 C3.23214233 102.81314125 3.23214233 102.81314125 1.76855469 102.80308533 C-1.4003914 102.78335446 -4.56929013 102.77169077 -7.73828125 102.76171875 C-9.36125657 102.75560546 -9.36125657 102.75560546 -11.01701927 102.74936867 C-16.74270817 102.72850982 -22.46837312 102.71420672 -28.1940918 102.70483398 C-34.10911629 102.69376401 -40.02376518 102.65935649 -45.93865681 102.61966228 C-50.4862895 102.5935255 -55.03383224 102.58514479 -59.58153343 102.58155251 C-61.76202115 102.57667975 -63.94250467 102.56504624 -66.12291908 102.54651451 C-69.17510448 102.5221839 -72.2263119 102.5230771 -75.27856445 102.5300293 C-76.62772194 102.51081421 -76.62772194 102.51081421 -78.00413513 102.49121094 C-84.4636378 102.544805 -88.41420204 104.05754025 -92.8125 109.0625 Z " fill="#2EDAAC" transform="translate(199,8)"/>
<path d="M0 0 C3.3 0 6.6 0 10 0 C11 1 11 1 11.12025452 3.58790588 C11.1169236 5.31665199 11.1169236 5.31665199 11.11352539 7.08032227 C11.11344986 8.38159561 11.11337433 9.68286896 11.11329651 11.02357483 C11.10818909 12.45451902 11.10297308 13.88546282 11.09765625 15.31640625 C11.09579203 16.7722926 11.09436815 18.22817957 11.09336853 19.68406677 C11.08954365 23.52279379 11.07971364 27.36148319 11.06866455 31.20019531 C11.05844978 35.11457816 11.05387077 39.02896706 11.04882812 42.94335938 C11.03809134 50.62892343 11.02101529 58.31445645 11 66 C7.37 66 3.74 66 0 66 C0 44.22 0 22.44 0 0 Z " fill="#34D5A9" transform="translate(184,140)"/>
<path d="M0 0 C3.3 0 6.6 0 10 0 C10 15.18 10 30.36 10 46 C6.7 46 3.4 46 0 46 C0 30.82 0 15.64 0 0 Z " fill="#39D4AA" transform="translate(159,160)"/>
<path d="M0 0 C3.3 0 6.6 0 10 0 C10 8.58 10 17.16 10 26 C6.37 26 2.74 26 -1 26 C-1.0268245 21.85412418 -1.04675315 17.70841962 -1.0625 13.5625 C-1.07087891 12.37849609 -1.07925781 11.19449219 -1.08789062 9.97460938 C-1.09111328 8.84990234 -1.09433594 7.72519531 -1.09765625 6.56640625 C-1.10289307 5.52427979 -1.10812988 4.48215332 -1.11352539 3.40844727 C-1 1 -1 1 0 0 Z " fill="#34D4AA" transform="translate(134,180)"/>
<path d="M0 0 C1.32 0 2.64 0 4 0 C7.35669798 5.39799737 7.41241546 9.80595065 7.34057617 15.95263672 C7.34101425 16.9386235 7.34145233 17.92461029 7.34190369 18.94047546 C7.33982005 22.18708358 7.31650858 25.43317002 7.29296875 28.6796875 C7.2873713 30.93555418 7.2831019 33.19142451 7.28010559 35.44729614 C7.26866864 41.37555058 7.2392111 47.30358341 7.20599365 53.23175049 C7.17526813 59.28467817 7.16159493 65.33764176 7.14648438 71.390625 C7.11434051 83.26051386 7.06315785 95.13023848 7 107 C6.67 107 6.34 107 6 107 C5.99413376 105.80032089 5.98826752 104.60064178 5.98222351 103.36460876 C5.92497092 92.04994234 5.85219577 80.73546764 5.76428509 69.42099667 C5.71958819 63.60432767 5.68033035 57.78772861 5.65356445 51.97094727 C5.62752501 46.3557513 5.58711752 40.74082455 5.53681374 35.12579536 C5.52014947 32.98526932 5.50863246 30.84469671 5.50238609 28.70411491 C5.49274045 25.70211547 5.46467481 22.7008041 5.43237305 19.69897461 C5.43380814 18.8171199 5.43524323 17.9352652 5.4367218 17.02668762 C5.33330756 10.21555138 3.82012757 5.73019135 0 0 Z " fill="#49CCAA" transform="translate(218,113)"/>
<path d="M0 0 C5.0800102 1.48199986 9.37664349 3.70198137 13.9375 6.3125 C14.95360352 6.88000977 14.95360352 6.88000977 15.99023438 7.45898438 C20.54820984 10.04169147 24.7820751 12.89292364 29 16 C28.34 16.33 27.68 16.66 27 17 C23.9533855 15.98446183 21.68856164 14.79237442 19 13 C19 12.34 19 11.68 19 11 C18.01 11 17.02 11 16 11 C16 10.34 16 9.68 16 9 C15.113125 8.71125 14.22625 8.4225 13.3125 8.125 C10.49617576 7.16851252 7.74916844 6.13201054 5 5 C5 4.34 5 3.68 5 3 C3.35 3 1.7 3 0 3 C0 2.01 0 1.02 0 0 Z " fill="#46C7A4" transform="translate(231,20)"/>
<path d="M0 0 C-3.69791078 2.46527385 -7.24817851 3.39127463 -11.5 4.5625 C-12.30356934 4.78574951 -13.10713867 5.00899902 -13.93505859 5.23901367 C-19.93209375 6.84572787 -25.77606008 7.84919969 -32 8 C-32 7.34 -32 6.68 -32 6 C-30.12612523 5.6603981 -28.25083303 5.32861309 -26.375 5 C-25.33085937 4.814375 -24.28671875 4.62875 -23.2109375 4.4375 C-20.09425135 4.01284203 -17.14069188 3.92454794 -14 4 C-14 3.34 -14 2.68 -14 2 C-9.126739 0.4087311 -5.19209404 -0.21192221 0 0 Z " fill="#4CC6A7" transform="translate(219,317)"/>
<path d="M0 0 C1.32 0 2.64 0 4 0 C4 0.66 4 1.32 4 2 C5.32 2 6.64 2 8 2 C8 2.66 8 3.32 8 4 C8.99 4.061875 9.98 4.12375 11 4.1875 C17.07874483 5.0400069 21.80188659 8.71768798 26 13 C19.56404235 11.08321013 13.81539951 8.54251139 7.9375 5.3125 C7.16728516 4.89677734 6.39707031 4.48105469 5.60351562 4.05273438 C3.732216 3.0415352 1.86559466 2.02168617 0 1 C0 0.67 0 0.34 0 0 Z " fill="#48CEA8" transform="translate(80,303)"/>
<path d="M0 0 C-1.65 0.33 -3.3 0.66 -5 1 C-5.33 2.98 -5.66 4.96 -6 7 C-7.9375 6.625 -7.9375 6.625 -10 6 C-10.33 5.34 -10.66 4.68 -11 4 C-13.02463255 3.34786708 -13.02463255 3.34786708 -15 3 C-15 3.66 -15 4.32 -15 5 C-16.65 4.67 -18.3 4.34 -20 4 C-16.76538003 1.84358669 -14.32927039 1.18899027 -10.5625 0.3125 C-9.42941406 0.04050781 -8.29632813 -0.23148437 -7.12890625 -0.51171875 C-4.25083111 -0.96085657 -2.68974913 -0.98469931 0 0 Z " fill="#3FCEA8" transform="translate(138,8)"/>
<path d="M0 0 C2.87691291 2.87691291 3.75349744 6.41973839 5.0625 10.1875 C5.33126953 10.93064453 5.60003906 11.67378906 5.87695312 12.43945312 C7.47069965 16.97427803 8.48713189 21.21956265 9 26 C6.37613513 22.93882432 6 22.26826873 6 18 C5.34 18 4.68 18 4 18 C4 16.35 4 14.7 4 13 C3.34 13 2.68 13 2 13 C1.66127487 11.58461283 1.32925376 10.16762037 1 8.75 C0.814375 7.96109375 0.62875 7.1721875 0.4375 6.359375 C0 4 0 4 0 0 Z " fill="#42C8A6" transform="translate(311,101)"/>
<path d="M0 0 C4.21814817 3.9700218 7.61227103 8.30840284 11 13 C10.67 13.66 10.34 14.32 10 15 C7.36 13.68 4.72 12.36 2 11 C2.04125 9.9275 2.0825 8.855 2.125 7.75 C2.0114175 4.34252515 1.78726636 2.79260369 0 0 Z " fill="#36D2AA" transform="translate(288,64)"/>
<path d="M0 0 C0.33 0 0.66 0 1 0 C2.62339751 10.07565196 2.62339751 10.07565196 0.1875 13.6875 C-0.534375 14.450625 -1.25625 15.21375 -2 16 C-2.91515325 18.65044385 -3.43921557 21.24280987 -4 24 C-5.09180878 20.69470655 -4.88297902 18.57913968 -4.00390625 15.234375 C-3.66069336 13.90019531 -3.66069336 13.90019531 -3.31054688 12.5390625 C-2.94026367 11.15847656 -2.94026367 11.15847656 -2.5625 9.75 C-2.31951172 8.81414062 -2.07652344 7.87828125 -1.82617188 6.9140625 C-1.22587133 4.6070251 -0.61689335 2.30264561 0 0 Z " fill="#44C5A4" transform="translate(10,116)"/>
<path d="M0 0 C1.98 0 3.96 0 6 0 C5.67 1.32 5.34 2.64 5 4 C5.66 4 6.32 4 7 4 C7.2475 4.639375 7.495 5.27875 7.75 5.9375 C8.81562433 8.18741541 8.81562433 8.18741541 11.125 8.75 C11.74375 8.8325 12.3625 8.915 13 9 C12.34 10.32 11.68 11.64 11 13 C9.53548421 11.58972554 8.0786107 10.17151204 6.625 8.75 C5.81289063 7.96109375 5.00078125 7.1721875 4.1640625 6.359375 C2.24416857 4.26620545 1.08366315 2.59602821 0 0 Z " fill="#43CBA8" transform="translate(39,267)"/>
<path d="M0 0 C0.33 0.99 0.66 1.98 1 3 C1.66 3 2.32 3 3 3 C3.33 4.32 3.66 5.64 4 7 C4.99 6.67 5.98 6.34 7 6 C6.34 9.3 5.68 12.6 5 16 C3.26453924 13.39680887 2.34824767 11.47732763 1.375 8.5625 C1.11460938 7.80066406 0.85421875 7.03882813 0.5859375 6.25390625 C0 4 0 4 0 0 Z " fill="#43CCA7" transform="translate(8,205)"/>
<path d="M0 0 C1.45792884 -0.05399736 2.91642712 -0.09279177 4.375 -0.125 C5.18710938 -0.14820313 5.99921875 -0.17140625 6.8359375 -0.1953125 C9 0 9 0 11 2 C12.98821313 2.39764263 14.98944339 2.73775349 17 3 C17.33 3.99 17.66 4.98 18 6 C5.33029613 2.92482916 5.33029613 2.92482916 0 1 C0 0.67 0 0.34 0 0 Z " fill="#4AC8A7" transform="translate(106,316)"/>
<path d="M0 0 C0.99 0.33 1.98 0.66 3 1 C3.33 1.99 3.66 2.98 4 4 C3 5 2 6 1 7 C0.484375 7.556875 -0.03125 8.11375 -0.5625 8.6875 C-2 10 -2 10 -4 10 C-3.52449439 8.51965236 -3.04448784 7.04074979 -2.5625 5.5625 C-2.29566406 4.73878906 -2.02882813 3.91507812 -1.75390625 3.06640625 C-1 1 -1 1 0 0 Z " fill="#3FCDA8" transform="translate(19,95)"/>
<path d="M0 0 C3.90450847 2.60300565 4.8798913 4.8328898 7 9 C7 9.99 7 10.98 7 12 C7.66 12 8.32 12 9 12 C8.34 13.32 7.68 14.64 7 16 C5.82845707 13.71070947 4.66261926 11.41881638 3.5 9.125 C3.16613281 8.47402344 2.83226562 7.82304687 2.48828125 7.15234375 C0 2.2265625 0 2.2265625 0 0 Z " fill="#48CAAA" transform="translate(16,229)"/>
<path d="M0 0 C3.0916909 2.52956528 3.90931332 5.22454612 5 9 C5.66 9 6.32 9 7 9 C7 9.99 7 10.98 7 12 C7.66 12 8.32 12 9 12 C8.67 12.99 8.34 13.98 8 15 C6.46623771 13.07158542 4.9482818 11.13378206 3.4375 9.1875 C2.78104492 8.36668945 2.78104492 8.36668945 2.11132812 7.52929688 C0.99411861 6.0778042 -0.01128867 4.54189429 -1 3 C-0.67 2.01 -0.34 1.02 0 0 Z " fill="#48C5A5" transform="translate(28,249)"/>
<path d="M0 0 C0.66 0 1.32 0 2 0 C0.83805848 6.46712188 -1.1248748 12.09622349 -4 18 C-5.13315882 14.60052355 -4.86787136 13.92652852 -3.6875 10.6875 C-3.40648437 9.89859375 -3.12546875 9.1096875 -2.8359375 8.296875 C-2.56007813 7.53890625 -2.28421875 6.7809375 -2 6 C-1.608125 4.824375 -1.21625 3.64875 -0.8125 2.4375 C-0.4103125 1.2309375 -0.4103125 1.2309375 0 0 Z " fill="#49C2A5" transform="translate(315,215)"/>
<path d="M0 0 C1.32 0.33 2.64 0.66 4 1 C2.69088122 2.50295185 1.37761608 4.00229311 0.0625 5.5 C-0.66839844 6.3353125 -1.39929688 7.170625 -2.15234375 8.03125 C-2.76207031 8.6809375 -3.37179687 9.330625 -4 10 C-4.33 10 -4.66 10 -5 10 C-5 8.35 -5 6.7 -5 5 C-3.68 5 -2.36 5 -1 5 C-0.67 3.35 -0.34 1.7 0 0 Z " fill="#46CAA7" transform="translate(286,266)"/>
<path d="M0 0 C0.99 0 1.98 0 3 0 C1.43358249 4.30764815 -0.68336156 8.06171464 -3 12 C-3.33 10.68 -3.66 9.36 -4 8 C-3.34 8 -2.68 8 -2 8 C-2 6.35 -2 4.7 -2 3 C-1.34 3 -0.68 3 0 3 C0 2.01 0 1.02 0 0 Z " fill="#47C9A7" transform="translate(303,241)"/>
<path d="M0 0 C4.17882671 2.56428003 7.12505529 5.01930733 10 9 C5.25 8.25 5.25 8.25 3 6 C3 5.01 3 4.02 3 3 C2.01 2.67 1.02 2.34 0 2 C0 1.34 0 0.68 0 0 Z " fill="#42CAA5" transform="translate(264,40)"/>
<path d="M0 0 C0 5.18481607 -3.92584611 9.00359995 -7 13 C-7.66 12.67 -8.32 12.34 -9 12 C-7.68858144 10.18671738 -6.37583526 8.37439486 -5.0625 6.5625 C-3.96615234 5.04849609 -3.96615234 5.04849609 -2.84765625 3.50390625 C-1 1 -1 1 0 0 Z " fill="#4AC1A2" transform="translate(39,64)"/>
<path d="M0 0 C2.64 0.33 5.28 0.66 8 1 C8.33 2.98 8.66 4.96 9 7 C5.18315774 5.44499019 2.80804268 2.96404505 0 0 Z " fill="#44CCA7" transform="translate(61,289)"/>
<path d="M0 0 C1.10844919 3.32534757 0.84454356 5.62182575 0 9 C-1.65 9 -3.3 9 -5 9 C-4.360625 8.071875 -3.72125 7.14375 -3.0625 6.1875 C-0.91377907 3.15780057 -0.91377907 3.15780057 0 0 Z " fill="#44CDA9" transform="translate(223,220)"/>
<path d="M0 0 C1.98 1.65 3.96 3.3 6 5 C5.67 5.66 5.34 6.32 5 7 C2.525 6.01 2.525 6.01 0 5 C0 3.35 0 1.7 0 0 Z " fill="#3FCBA8" transform="translate(282,57)"/>
<path d="M0 0 C2.96404505 2.80804268 5.44499019 5.18315774 7 9 C5.125 8.8125 5.125 8.8125 3 8 C1.8125 5.625 1.8125 5.625 1 3 C0.67 2.01 0.34 1.02 0 0 Z " fill="#45C6A3" transform="translate(288,64)"/>
<path d="M0 0 C0.66 0.33 1.32 0.66 2 1 C0.02 3.97 0.02 3.97 -2 7 C-3.0625 5.125 -3.0625 5.125 -4 3 C-3 1 -3 1 0 0 Z " fill="#3FCFAA" transform="translate(293,259)"/>
<path d="M0 0 C3.48539917 0.64544429 6.02819057 2.10134397 9 4 C8.01 4.495 8.01 4.495 7 5 C4.64018187 4.06421005 2.30368736 3.06652192 0 2 C0 1.34 0 0.68 0 0 Z " fill="#51C6A7" transform="translate(97,311)"/>
<path d="M0 0 C2.1875 0.3125 2.1875 0.3125 4 1 C2.02 2.32 0.04 3.64 -2 5 C-2.33 4.34 -2.66 3.68 -3 3 C-1.75 1.4375 -1.75 1.4375 0 0 Z " fill="#45C7A5" transform="translate(251,298)"/>
<path d="M0 0 C1.65 0 3.3 0 5 0 C5 0.99 5 1.98 5 3 C4.01 3.66 3.02 4.32 2 5 C1.34 3.35 0.68 1.7 0 0 Z " fill="#39D2A9" transform="translate(104,112)"/>
<path d="M0 0 C6.625 0.75 6.625 0.75 10 3 C7.03 3 4.06 3 1 3 C0.67 2.01 0.34 1.02 0 0 Z " fill="#41C6A5" transform="translate(203,10)"/>
</svg>
