<svg width="21" height="21" viewBox="0 0 21 21" fill="none" xmlns="http://www.w3.org/2000/svg">
<path d="M10.5 3.60938C8.94248 3.60938 7.41993 4.07124 6.12489 4.93655C4.82985 5.80187 3.82049 7.03177 3.22445 8.47074C2.62841 9.90971 2.47246 11.4931 2.77632 13.0207C3.08018 14.5483 3.8302 15.9515 4.93154 17.0528C6.03288 18.1542 7.43607 18.9042 8.96367 19.2081C10.4913 19.5119 12.0747 19.356 13.5136 18.7599C14.9526 18.1639 16.1825 17.1545 17.0478 15.8595C17.9131 14.5645 18.375 13.0419 18.375 11.4844C18.3726 9.39653 17.5422 7.39488 16.0658 5.91855C14.5895 4.44221 12.5879 3.61176 10.5 3.60938ZM10.5 17.3906C9.33186 17.3906 8.18994 17.0442 7.21867 16.3952C6.24739 15.7463 5.49037 14.8238 5.04334 13.7446C4.59631 12.6654 4.47935 11.4778 4.70724 10.3321C4.93513 9.18642 5.49765 8.13403 6.32365 7.30803C7.14966 6.48202 8.20205 5.91951 9.34775 5.69161C10.4935 5.46372 11.681 5.58068 12.7602 6.02771C13.8395 6.47474 14.7619 7.23176 15.4109 8.20304C16.0599 9.17432 16.4063 10.3162 16.4063 11.4844C16.4045 13.0503 15.7817 14.5515 14.6744 15.6588C13.5672 16.7661 12.0659 17.3889 10.5 17.3906ZM13.4933 8.16293C13.5851 8.25438 13.6579 8.36305 13.7076 8.4827C13.7573 8.60236 13.7829 8.73064 13.7829 8.8602C13.7829 8.98975 13.7573 9.11804 13.7076 9.23769C13.6579 9.35734 13.5851 9.46601 13.4933 9.55746L11.1964 11.8543C11.0115 12.0393 10.7607 12.1432 10.4992 12.1432C10.2377 12.1432 9.98684 12.0393 9.80192 11.8543C9.61699 11.6694 9.5131 11.4186 9.5131 11.1571C9.5131 10.8955 9.61699 10.6447 9.80192 10.4598L12.0988 8.16293C12.1902 8.07116 12.2989 7.99835 12.4186 7.94866C12.5382 7.89898 12.6665 7.8734 12.7961 7.8734C12.9256 7.8734 13.0539 7.89898 13.1736 7.94866C13.2932 7.99835 13.4019 8.07116 13.4933 8.16293ZM7.54688 1.3125C7.54688 1.05143 7.65059 0.801048 7.8352 0.616442C8.0198 0.431836 8.27018 0.328125 8.53125 0.328125H12.4688C12.7298 0.328125 12.9802 0.431836 13.1648 0.616442C13.3494 0.801048 13.4531 1.05143 13.4531 1.3125C13.4531 1.57357 13.3494 1.82395 13.1648 2.00856C12.9802 2.19316 12.7298 2.29688 12.4688 2.29688H8.53125C8.27018 2.29688 8.0198 2.19316 7.8352 2.00856C7.65059 1.82395 7.54688 1.57357 7.54688 1.3125Z" fill="#F45A51"/>
</svg>
