<svg width="263" height="263" viewBox="0 0 263 263" fill="none" xmlns="http://www.w3.org/2000/svg">
<rect width="263" height="263" fill="#E5E5E5"/>
<path d="M-1085 -14189C-1085 -14190.1 -1084.1 -14191 -1083 -14191H16148C16149.1 -14191 16150 -14190.1 16150 -14189V6838C16150 6839.11 16149.1 6840 16148 6840H-1083C-1084.1 6840 -1085 6839.11 -1085 6838V-14189Z" fill="#EBEBEB"/>
<path d="M-1083 -14190H16148V-14192H-1083V-14190ZM16149 -14189V6838H16151V-14189H16149ZM16148 6839H-1083V6841H16148V6839ZM-1084 6838V-14189H-1086V6838H-1084ZM-1083 6839C-1083.55 6839 -1084 6838.55 -1084 6838H-1086C-1086 6839.66 -1084.66 6841 -1083 6841V6839ZM16149 6838C16149 6838.55 16148.6 6839 16148 6839V6841C16149.7 6841 16151 6839.66 16151 6838H16149ZM16148 -14190C16148.6 -14190 16149 -14189.6 16149 -14189H16151C16151 -14190.7 16149.7 -14192 16148 -14192V-14190ZM-1083 -14192C-1084.66 -14192 -1086 -14190.7 -1086 -14189H-1084C-1084 -14189.6 -1083.55 -14190 -1083 -14190V-14192Z" fill="black" fill-opacity="0.1"/>
<g clip-path="url(#clip0_3001_39972)">
<rect width="1440" height="950" transform="translate(-720 -332)" fill="#141B2D"/>
<g style="mix-blend-mode:luminosity">
<path d="M263 201.141H0V201.273H263V201.141Z" fill="#DEE7EF"/>
<path d="M236.648 209.608H219.226V209.739H236.648V209.608Z" fill="#DEE7EF"/>
<path d="M174.222 211.035H169.649V211.167H174.222V211.035Z" fill="#DEE7EF"/>
<path d="M218.699 204.723H208.604V204.855H218.699V204.723Z" fill="#DEE7EF"/>
<path d="M50.3133 205.607H27.5938V205.739H50.3133V205.607Z" fill="#DEE7EF"/>
<path d="M58.3273 205.607H54.9961V205.739H58.3273V205.607Z" fill="#DEE7EF"/>
<path d="M118.427 207.828H69.1533V207.96H118.427V207.828Z" fill="#DEE7EF"/>
<path d="M124.669 177.683H23.0991C21.4438 177.683 20.0967 176.336 20.0967 174.68V31.9072C20.0967 30.2519 21.4438 28.9048 23.0991 28.9048H124.669C126.324 28.9048 127.671 30.2519 127.671 31.9072V174.68C127.671 176.336 126.324 177.683 124.669 177.683ZM23.0991 29.0368C21.5158 29.0368 20.2282 30.3245 20.2282 31.9077V174.681C20.2282 176.264 21.5158 177.552 23.0991 177.552H124.669C126.252 177.552 127.54 176.264 127.54 174.681V31.9072C127.54 30.3245 126.252 29.0363 124.669 29.0363L23.0991 29.0368Z" fill="#DEE7EF"/>
<path d="M238.441 177.683H136.871C135.216 177.683 133.869 176.336 133.869 174.68V31.9072C133.869 30.2519 135.216 28.9048 136.871 28.9048H238.441C240.096 28.9048 241.443 30.2519 241.443 31.9072V174.68C241.444 176.336 240.096 177.683 238.441 177.683ZM136.871 29.0368C135.288 29.0368 134.001 30.3245 134.001 31.9077V174.681C134.001 176.264 135.288 177.552 136.871 177.552H238.441C240.024 177.552 241.311 176.264 241.311 174.681V31.9072C241.311 30.3245 240.024 29.0363 238.441 29.0363L136.871 29.0368Z" fill="#DEE7EF"/>
<path d="M152.377 91.5547L224.85 91.5547V44.0953L152.377 44.0953V91.5547Z" fill="#E6E6E6"/>
<path d="M150.166 91.5547L223.816 91.5547V44.0953L150.166 44.0953V91.5547Z" fill="#F0F0F0"/>
<path d="M152.377 100.869L224.85 100.869V91.5542L152.377 91.5542V100.869Z" fill="#E6E6E6"/>
<path d="M146.482 100.869L220.133 100.869V91.5542L146.482 91.5542V100.869Z" fill="#F0F0F0"/>
<path d="M220.721 88.459V47.1912L153.262 47.1912V88.459L220.721 88.459Z" fill="#FAFAFA"/>
<path d="M205.509 88.4595L196.893 47.1917H183.448L192.064 88.4595H205.509Z" fill="white"/>
<path d="M219.288 85.3778C219.41 85.3778 219.509 85.2789 219.509 85.1568V49.2058C219.509 49.0838 219.41 48.9849 219.288 48.9849C219.166 48.9849 219.066 49.0838 219.066 49.2058V85.1568C219.066 85.2789 219.166 85.3778 219.288 85.3778Z" fill="#F0F0F0"/>
<path d="M189.176 88.4595L180.56 47.1917H175.318L183.935 88.4595H189.176Z" fill="white"/>
<path d="M153.655 88.459V47.1912H153.262V88.459H153.655Z" fill="#E6E6E6"/>
<path opacity="0.6" d="M149.434 51.8588H221.906L222.191 48.3945H149.718L149.434 51.8588Z" fill="#DEE7EF"/>
<path opacity="0.6" d="M149.434 57.5407H221.906L222.191 54.0764H149.718L149.434 57.5407Z" fill="#DEE7EF"/>
<path opacity="0.6" d="M149.434 63.2225H221.906L222.191 59.7583H149.718L149.434 63.2225Z" fill="#DEE7EF"/>
<path opacity="0.6" d="M149.434 68.9044H221.906L222.191 65.4402H149.718L149.434 68.9044Z" fill="#DEE7EF"/>
<path opacity="0.6" d="M149.434 74.5863H221.906L222.191 71.1221H149.718L149.434 74.5863Z" fill="#DEE7EF"/>
<path opacity="0.6" d="M149.434 80.2682H221.906L222.191 76.804H149.718L149.434 80.2682Z" fill="#DEE7EF"/>
<path d="M214.444 166.627H199.248V169.623H214.444V166.627Z" fill="#E6E6E6"/>
<path d="M170.585 201.142H173.391V132.202H170.585V201.142Z" fill="#E6E6E6"/>
<path d="M160.87 169.623H199.248V166.627H160.87V169.623Z" fill="#F5F5F5"/>
<path d="M214.444 183.021H199.248V186.017H214.444V183.021Z" fill="#E6E6E6"/>
<path d="M160.87 186.017H199.248V183.02H160.87V186.017Z" fill="#F5F5F5"/>
<path d="M214.444 133.84H199.248V136.836H214.444V133.84Z" fill="#E6E6E6"/>
<path d="M160.87 136.836H199.248V133.84H160.87V136.836Z" fill="#F5F5F5"/>
<path d="M214.444 150.234H199.248V153.23H214.444V150.234Z" fill="#E6E6E6"/>
<path d="M160.87 153.229H199.248V150.233H160.87V153.229Z" fill="#F5F5F5"/>
<path d="M208.964 201.142H211.77V132.202H208.964V201.142Z" fill="#E6E6E6"/>
<path d="M196.443 201.142H199.248V132.202H196.443V201.142Z" fill="#F5F5F5"/>
<path d="M160.869 201.142H163.674V132.202H160.869V201.142Z" fill="#F5F5F5"/>
<path d="M34.3867 201.142H63.0947L63.0947 145.443H34.3867L34.3867 201.142Z" fill="#E6E6E6"/>
<path d="M42.0526 201.142H34.3867V193.453H50.0899L42.0526 201.142Z" fill="#FAFAFA"/>
<path d="M112.66 201.142H141.368V145.443H112.66V201.142Z" fill="#E6E6E6"/>
<path d="M34.3863 198.495H119.351V145.442H34.3863V198.495Z" fill="#FAFAFA"/>
<path d="M111.685 201.142H119.351V193.453H103.647L111.685 201.142Z" fill="#FAFAFA"/>
<path d="M40.334 178.488H113.404V165.212H40.334V178.488Z" fill="#F0F0F0"/>
<path d="M40.334 194.603H113.404V181.326H40.334V194.603Z" fill="#F0F0F0"/>
<path d="M54.2224 166.632H99.5152C100.844 166.632 101.922 165.554 101.922 164.224V164.062H51.8154V164.224C51.8154 165.554 52.8932 166.632 54.2224 166.632Z" fill="#FAFAFA"/>
<path d="M40.334 162.374H113.404V149.097H40.334V162.374Z" fill="#F0F0F0"/>
<path d="M54.2224 150.517H99.5152C100.844 150.517 101.922 149.439 101.922 148.11V147.948H51.8154V148.11C51.8154 149.439 52.8932 150.517 54.2224 150.517Z" fill="#FAFAFA"/>
<path d="M54.2224 182.745H99.5152C100.844 182.745 101.922 181.668 101.922 180.339V180.177H51.8154V180.339C51.8154 181.668 52.8932 182.745 54.2224 182.745Z" fill="#FAFAFA"/>
<path d="M38.9598 91.5547L111.433 91.5547V44.0953L38.9598 44.0953V91.5547Z" fill="#E6E6E6"/>
<path d="M36.7489 91.5547L110.399 91.5547V44.0953L36.7489 44.0953V91.5547Z" fill="#F0F0F0"/>
<path d="M38.9598 100.869L111.433 100.869V91.5542L38.9598 91.5542V100.869Z" fill="#E6E6E6"/>
<path d="M33.0643 100.869L106.715 100.869V91.5542L33.0643 91.5542V100.869Z" fill="#F0F0F0"/>
<path d="M107.304 88.4593L107.304 47.1914L39.8447 47.1914L39.8447 88.4593L107.304 88.4593Z" fill="#FAFAFA"/>
<path d="M92.0918 88.4595L83.4754 47.1917H70.0303L78.6467 88.4595H92.0918Z" fill="white"/>
<path d="M105.87 85.3778C105.992 85.3778 106.091 85.2789 106.091 85.1568V49.2058C106.091 49.0838 105.992 48.9849 105.87 48.9849C105.748 48.9849 105.648 49.0838 105.648 49.2058V85.1568C105.649 85.2789 105.748 85.3778 105.87 85.3778Z" fill="#F0F0F0"/>
<path d="M75.7584 88.4595L67.142 47.1917H61.9004L70.5168 88.4595H75.7584Z" fill="white"/>
<path d="M40.2373 88.4593L40.2373 47.1914H39.8444L39.8444 88.4593H40.2373Z" fill="#E6E6E6"/>
<path opacity="0.6" d="M36.0156 51.8588H108.488L108.774 48.3945H36.3007L36.0156 51.8588Z" fill="#DEE7EF"/>
<path opacity="0.6" d="M36.0156 53.8134H108.488L108.774 50.3486H36.3007L36.0156 53.8134Z" fill="#DEE7EF"/>
<path opacity="0.6" d="M36.0156 55.7675H108.488L108.774 52.3032H36.3007L36.0156 55.7675Z" fill="#DEE7EF"/>
<path opacity="0.6" d="M36.0156 57.7221H108.488L108.774 54.2573H36.3007L36.0156 57.7221Z" fill="#DEE7EF"/>
<path opacity="0.6" d="M36.0156 59.6764H108.488L108.774 56.2122H36.3007L36.0156 59.6764Z" fill="#DEE7EF"/>
<path opacity="0.6" d="M36.0156 61.6305H108.488L108.774 58.1663H36.3007L36.0156 61.6305Z" fill="#DEE7EF"/>
<path d="M50.5035 143.741H53.0088V115.814H50.5035V143.741Z" fill="#F5F5F5"/>
<path d="M50.8257 143.721H51.5332V115.795H50.8257V143.721Z" fill="#FAFAFA"/>
<path d="M51.8302 143.721H52.1074V115.795H51.8302V143.721Z" fill="#FAFAFA"/>
<path d="M42.4814 145.443H61.0303C61.0303 144.152 59.9841 143.106 58.6933 143.106H44.8185C43.5277 143.106 42.4814 144.152 42.4814 145.443Z" fill="#F0F0F0"/>
<path d="M47.2528 133.151C47.6495 133.151 47.9735 132.826 47.9735 132.43V114.12C47.9735 113.724 47.6489 113.399 47.2528 113.399C46.8562 113.399 46.5322 113.724 46.5322 114.12V132.43C46.5322 132.827 46.8562 133.151 47.2528 133.151Z" fill="#F0F0F0"/>
<path d="M40.541 122.452H62.9707L60.3907 106.778H43.121L40.541 122.452Z" fill="#E0E0E0"/>
<path d="M131.5 224.897C187.825 224.897 233.486 222.231 233.486 218.941C233.486 215.652 187.825 212.985 131.5 212.985C75.1752 212.985 29.5146 215.652 29.5146 218.941C29.5146 222.231 75.1752 224.897 131.5 224.897Z" fill="#F5F5F5"/>
<path d="M54.761 106.441L54.2363 106.479L54.9346 116.179L55.4592 116.141L54.761 106.441Z" fill="#FFCE67"/>
<path d="M55.8293 121.146L55.3047 121.184L55.5677 124.833L56.0924 124.795L55.8293 121.146Z" fill="#FFCE67"/>
<path d="M177.637 165.775H64.9897C62.4417 165.775 60.2073 163.69 60.0237 161.142L54.4886 84.2777C54.305 81.7298 56.2397 79.6453 58.7876 79.6453H171.435C173.983 79.6453 176.217 81.7298 176.401 84.2777L181.936 161.142C182.119 163.69 180.185 165.775 177.637 165.775Z" fill="#FFCE67"/>
<path d="M178.068 165.775H65.4213C62.8734 165.775 60.6389 163.69 60.4554 161.142L54.9203 84.2777C54.7367 81.7298 56.6713 79.6453 59.2193 79.6453H171.866C174.414 79.6453 176.649 81.7298 176.832 84.2777L182.367 161.142C182.55 163.69 180.616 165.775 178.068 165.775Z" fill="#FFCE67"/>
<path opacity="0.5" d="M178.068 165.775H65.4213C62.8734 165.775 60.6389 163.69 60.4554 161.142L54.9203 84.2777C54.7367 81.7298 56.6713 79.6453 59.2193 79.6453H171.866C174.414 79.6453 176.649 81.7298 176.832 84.2777L182.367 161.142C182.55 163.69 180.616 165.775 178.068 165.775Z" fill="white"/>
<path d="M172.033 81.9617H59.3856C59.2583 81.9617 59.1326 81.9669 59.0084 81.9769C56.1291 82.2142 56.7172 86.5942 59.6233 86.5942H172.462C175.369 86.5942 175.326 82.2142 172.412 81.9769C172.287 81.9669 172.16 81.9617 172.033 81.9617Z" fill="#FFCE67"/>
<path d="M62.3201 84.2783C62.3622 84.8648 61.9214 85.3403 61.3344 85.3403C60.7479 85.3403 60.2382 84.8648 60.1961 84.2783C60.1541 83.6918 60.5948 83.2163 61.1819 83.2163C61.7689 83.2163 62.278 83.6913 62.3201 84.2783Z" fill="#FAFAFA"/>
<path d="M65.9324 84.2783C65.9745 84.8648 65.5337 85.3403 64.9467 85.3403C64.3602 85.3403 63.8505 84.8648 63.8084 84.2783C63.7664 83.6918 64.2072 83.2163 64.7942 83.2163C65.3807 83.2163 65.8904 83.6913 65.9324 84.2783Z" fill="#FAFAFA"/>
<path d="M69.5453 84.2783C69.5873 84.8648 69.146 85.3403 68.5595 85.3403C67.973 85.3403 67.4634 84.8648 67.4207 84.2783C67.3787 83.6918 67.82 83.2163 68.4065 83.2163C68.993 83.2163 69.5027 83.6913 69.5453 84.2783Z" fill="#FAFAFA"/>
<path d="M175.081 158.103H67.3022C66.3749 158.103 65.5685 157.351 65.5017 156.424L60.9497 93.213C60.8829 92.2856 61.5809 91.5334 62.5083 91.5334H170.287C171.215 91.5334 172.021 92.2851 172.088 93.213L176.64 156.424C176.707 157.351 176.009 158.103 175.081 158.103Z" fill="white"/>
<path d="M129.675 134.024L127.921 109.66L122.604 106.46H107.979L109.965 134.024H129.675Z" fill="white"/>
<path d="M129.675 134.279H109.964C109.831 134.279 109.72 134.176 109.71 134.042L107.725 106.478C107.72 106.408 107.745 106.338 107.793 106.286C107.842 106.234 107.909 106.205 107.98 106.205H122.605C122.651 106.205 122.697 106.218 122.736 106.242L128.053 109.442C128.124 109.484 128.169 109.559 128.175 109.642L129.929 134.005C129.935 134.076 129.91 134.146 129.861 134.197C129.814 134.25 129.746 134.279 129.675 134.279ZM110.202 133.769H129.401L127.676 109.811L122.534 106.715H108.253L110.202 133.769Z" fill="#FFCE67"/>
<path d="M127.921 109.66L122.604 106.46L124.556 110.699L127.921 109.66Z" fill="#EBEBEB"/>
<path d="M124.556 110.954C124.459 110.954 124.368 110.898 124.325 110.806L122.373 106.567C122.326 106.465 122.351 106.345 122.435 106.27C122.518 106.195 122.64 106.184 122.736 106.241L128.052 109.442C128.139 109.493 128.186 109.591 128.174 109.691C128.162 109.791 128.092 109.874 127.996 109.904L124.632 110.943C124.607 110.95 124.582 110.954 124.556 110.954ZM123.183 107.105L124.695 110.39L127.302 109.584L123.183 107.105Z" fill="#FFCE67"/>
<path d="M116.23 118.879C116.274 119.494 115.812 119.992 115.196 119.992C114.581 119.992 114.047 119.494 114.003 118.879C113.959 118.264 114.421 117.765 115.036 117.765C115.651 117.765 116.186 118.264 116.23 118.879Z" fill="#FFCE67"/>
<path d="M123.455 118.879C123.499 119.494 123.037 119.992 122.422 119.992C121.807 119.992 121.272 119.494 121.228 118.879C121.183 118.264 121.646 117.765 122.261 117.765C122.877 117.766 123.411 118.264 123.455 118.879Z" fill="#FFCE67"/>
<path d="M125.493 126.101C125.361 126.101 125.249 125.998 125.239 125.864C125.11 124.073 122.303 122.617 118.98 122.617C116.779 122.617 114.802 123.271 113.822 124.325C113.386 124.793 113.184 125.298 113.222 125.827C113.232 125.968 113.127 126.09 112.986 126.1C112.845 126.108 112.724 126.004 112.714 125.863C112.666 125.197 112.92 124.545 113.449 123.977C114.522 122.823 116.641 122.107 118.98 122.107C122.625 122.107 125.598 123.741 125.748 125.827C125.758 125.967 125.652 126.089 125.512 126.099C125.506 126.101 125.499 126.101 125.493 126.101Z" fill="#FFCE67"/>
<path d="M112.126 116.623C112.064 116.623 112.002 116.601 111.953 116.555C111.85 116.46 111.843 116.298 111.939 116.195L113.056 114.991C113.152 114.888 113.313 114.883 113.417 114.978C113.52 115.074 113.525 115.235 113.43 115.338L112.314 116.542C112.263 116.596 112.195 116.623 112.126 116.623Z" fill="#FFCE67"/>
<path d="M124.969 116.623C124.907 116.623 124.845 116.6 124.795 116.555L123.505 115.351C123.402 115.256 123.396 115.094 123.492 114.991C123.588 114.888 123.749 114.883 123.853 114.978L125.143 116.182C125.246 116.278 125.251 116.439 125.155 116.542C125.105 116.596 125.038 116.623 124.969 116.623Z" fill="#FFCE67"/>
<path d="M106.388 139.47H107.576L109.292 141.75L109.128 139.47H110.327L110.624 143.591H109.424L107.718 141.328L107.881 143.591H106.684L106.388 139.47Z" fill="#FFCE67"/>
<path d="M111.162 141.533C111.114 140.86 111.263 140.337 111.611 139.962C111.959 139.587 112.468 139.399 113.136 139.399C113.822 139.399 114.363 139.584 114.761 139.952C115.159 140.32 115.381 140.835 115.429 141.499C115.464 141.98 115.411 142.375 115.271 142.683C115.131 142.991 114.915 143.231 114.621 143.403C114.327 143.574 113.951 143.66 113.494 143.66C113.029 143.66 112.639 143.586 112.324 143.438C112.009 143.29 111.746 143.056 111.533 142.735C111.321 142.415 111.197 142.015 111.162 141.533ZM112.436 141.539C112.466 141.955 112.565 142.253 112.732 142.435C112.9 142.617 113.116 142.707 113.382 142.707C113.656 142.707 113.861 142.619 113.998 142.44C114.136 142.262 114.187 141.943 114.154 141.482C114.126 141.094 114.027 140.811 113.858 140.632C113.689 140.453 113.47 140.364 113.202 140.364C112.945 140.364 112.746 140.455 112.603 140.636C112.461 140.819 112.406 141.119 112.436 141.539Z" fill="#FFCE67"/>
<path d="M117.904 139.47H119.796C120.169 139.47 120.473 139.521 120.711 139.622C120.947 139.723 121.148 139.868 121.311 140.057C121.475 140.247 121.599 140.467 121.685 140.718C121.77 140.969 121.823 141.235 121.844 141.516C121.875 141.956 121.85 142.298 121.767 142.541C121.684 142.783 121.559 142.987 121.393 143.15C121.227 143.314 121.044 143.423 120.844 143.478C120.57 143.553 120.32 143.59 120.093 143.59H118.201L117.904 139.47ZM119.245 140.404L119.407 142.655H119.718C119.985 142.655 120.171 142.625 120.28 142.566C120.388 142.508 120.469 142.404 120.522 142.257C120.575 142.11 120.59 141.872 120.566 141.542C120.534 141.105 120.442 140.806 120.288 140.646C120.133 140.485 119.892 140.404 119.562 140.404H119.245V140.404Z" fill="#FFCE67"/>
<path d="M124.898 142.91H123.453L123.301 143.59H122.001L123.253 139.47H124.641L126.486 143.59H125.153L124.898 142.91ZM124.57 142.019L124.008 140.538L123.665 142.019H124.57Z" fill="#FFCE67"/>
<path d="M125.908 139.47H129.778L129.851 140.488H128.553L128.776 143.591H127.504L127.28 140.488H125.982L125.908 139.47Z" fill="#FFCE67"/>
<path d="M132.745 142.91H131.299L131.147 143.59H129.848L131.1 139.47H132.488L134.333 143.59H132.999L132.745 142.91ZM132.417 142.019L131.855 140.538L131.512 142.019H132.417Z" fill="#FFCE67"/>
<path d="M186.039 91.0402C186.509 90.8045 187.069 90.5 187.588 90.2154C188.115 89.9256 188.64 89.6231 189.157 89.3086C190.187 88.6742 191.226 88.0472 192.212 87.3508C194.201 85.9806 196.065 84.4599 197.742 82.7993C197.961 82.5984 198.148 82.3754 198.351 82.1629L198.651 81.841L198.801 81.68L198.877 81.5995C198.897 81.5785 198.892 81.5827 198.882 81.5953L198.866 81.6211C198.791 81.7615 198.853 81.7189 198.882 81.5832C198.917 81.4528 198.947 81.2397 198.956 81.0093C198.99 80.0541 198.801 78.8501 198.573 77.6861C198.104 75.327 197.395 72.9005 196.695 70.523L198.738 69.6267C200.019 71.9127 201.085 74.2476 201.954 76.7793C202.367 78.0616 202.747 79.3493 202.858 80.931C202.878 81.3339 202.887 81.7573 202.814 82.2512C202.737 82.7373 202.614 83.319 202.171 83.9786L202.083 84.1001L202.015 84.1885L201.934 84.2874L201.772 84.4841L201.448 84.8786C201.228 85.1384 201.02 85.4125 200.787 85.656C198.973 87.6701 196.956 89.449 194.802 90.996C193.73 91.7792 192.635 92.523 191.497 93.1999C190.93 93.5429 190.356 93.8722 189.773 94.1914C189.182 94.5197 188.621 94.8053 187.95 95.1204L186.039 91.0402Z" fill="#FFB573"/>
<path d="M181.361 214.702C181.769 214.702 182.214 214.617 182.524 214.544C182.565 214.534 182.596 214.502 182.603 214.46C182.611 214.419 182.593 214.378 182.558 214.355C182.407 214.256 181.069 213.392 180.557 213.624C180.476 213.661 180.374 213.742 180.349 213.918C180.316 214.151 180.374 214.338 180.522 214.472C180.71 214.644 181.023 214.702 181.361 214.702ZM182.229 214.395C181.462 214.548 180.885 214.522 180.662 214.318C180.568 214.232 180.532 214.11 180.556 213.947C180.568 213.859 180.609 213.83 180.642 213.815C180.912 213.693 181.684 214.065 182.229 214.395Z" fill="#407BFF"/>
<path d="M182.5 214.547C182.518 214.547 182.537 214.542 182.553 214.533C182.585 214.514 182.605 214.48 182.605 214.442C182.605 214.389 182.599 213.12 182.12 212.696C181.993 212.584 181.844 212.537 181.678 212.557C181.417 212.588 181.346 212.753 181.327 212.848C181.227 213.344 182.029 214.295 182.449 214.533C182.465 214.542 182.482 214.547 182.5 214.547ZM181.751 212.761C181.837 212.761 181.912 212.791 181.982 212.852C182.268 213.105 182.366 213.818 182.39 214.24C181.971 213.905 181.471 213.191 181.532 212.889C181.542 212.839 181.57 212.78 181.703 212.764C181.719 212.762 181.735 212.761 181.751 212.761Z" fill="#407BFF"/>
<path d="M182.113 77.8833C181.601 80.4975 180.52 85.7928 182.35 87.5375C182.35 87.5375 181.635 90.1896 176.777 90.1896C171.436 90.1896 174.225 87.538 174.225 87.538C177.14 86.8416 177.065 84.6787 176.557 82.6473L182.113 77.8833Z" fill="#FFB573"/>
<path d="M173.203 88.5912C172.365 88.7048 173.078 86.533 173.419 86.3079C174.206 85.7876 184.387 85.0513 184.32 86.2868C184.278 86.8186 184.028 87.8564 183.583 88.2088C183.138 88.5613 180.523 87.4961 173.203 88.5912Z" fill="#263238"/>
<path d="M174.862 87.8601C174.196 88.0852 174.259 85.8965 174.486 85.633C175.01 85.0239 183.251 82.9067 183.495 84.1044C183.59 84.6215 183.635 85.6545 183.352 86.0559C183.07 86.4567 180.649 85.7934 174.862 87.8601Z" fill="#263238"/>
<path d="M171.797 73.1709C171.732 73.1746 171.667 73.1488 171.623 73.0946C171.034 72.374 170.268 72.4477 170.26 72.4487C170.144 72.4608 170.043 72.3782 170.031 72.2636C170.018 72.1489 170.101 72.0458 170.216 72.0337C170.256 72.0295 171.215 71.9364 171.946 72.8301C172.019 72.9195 172.006 73.051 171.917 73.1236C171.882 73.153 171.839 73.1683 171.797 73.1709Z" fill="#263238"/>
<path d="M170.777 75.7446C170.777 75.7446 170.327 77.3263 169.738 78.1258C170.248 78.5156 171.022 78.2384 171.022 78.2384L170.777 75.7446Z" fill="#FF5652"/>
<path d="M171.034 75.1056C171.068 75.459 170.909 75.7641 170.678 75.7873C170.447 75.8099 170.231 75.5416 170.196 75.1881C170.161 74.8347 170.321 74.5296 170.552 74.5065C170.783 74.4838 170.999 74.7521 171.034 75.1056Z" fill="#263238"/>
<path d="M170.657 74.516L169.783 74.3545C169.783 74.3545 170.284 74.9757 170.657 74.516Z" fill="#263238"/>
<path d="M187.624 214.442H183.218L183.563 204.24H187.969L187.624 214.442Z" fill="#FFB573"/>
<path d="M182.869 213.933H187.819C187.999 213.933 188.145 214.058 188.17 214.233L188.734 218.15C188.793 218.556 188.443 218.94 188.028 218.933C186.302 218.904 185.47 218.802 183.294 218.802C181.955 218.802 179.998 218.941 178.149 218.941C176.34 218.941 176.201 217.112 176.971 216.947C180.424 216.204 180.969 215.18 182.133 214.203C182.342 214.027 182.606 213.933 182.869 213.933Z" fill="#263238"/>
<g opacity="0.2">
<path d="M187.97 204.242H183.562L183.387 209.502H187.795L187.97 204.242Z" fill="black"/>
</g>
<path d="M170.094 93.6513C167.368 92.584 164.767 91.4232 162.178 90.0987C159.593 88.7758 157.047 87.3666 154.601 85.4841C153.992 85.0049 153.39 84.481 152.801 83.8693C152.655 83.7115 152.508 83.5652 152.364 83.3843C152.212 83.1939 152.098 83.0818 151.902 82.7894C151.546 82.2781 151.271 81.5917 151.198 80.8911C151.129 80.1899 151.255 79.5203 151.456 78.9864C151.657 78.4431 151.92 77.9996 152.196 77.6151C152.749 76.8451 153.362 76.2759 153.979 75.7636C155.211 74.7437 156.515 74.002 157.82 73.3088C158.472 72.9627 159.137 72.6507 159.81 72.3635C160.487 72.0716 161.147 71.8002 161.865 71.553L162.799 73.5797C160.504 75.0256 158.128 76.6152 156.38 78.3973C155.956 78.8386 155.585 79.3004 155.351 79.707C155.101 80.121 155.104 80.4308 155.146 80.4071C155.168 80.4071 155.16 80.3977 155.221 80.4587L155.43 80.6833C155.509 80.7774 155.62 80.8737 155.719 80.9705C156.132 81.356 156.617 81.7432 157.139 82.1114C158.183 82.8546 159.333 83.55 160.523 84.1996C161.709 84.8581 162.929 85.4883 164.171 86.0864C166.65 87.2735 169.22 88.416 171.741 89.4596L170.094 93.6513Z" fill="#FFB573"/>
<path d="M164.096 72.143L164.824 70.5629L161.512 69.4131C161.512 69.4131 160.481 72.5181 161.71 73.9509C162.757 73.7831 163.652 73.1056 164.096 72.143Z" fill="#FFB573"/>
<path d="M164.823 67.1473L162.176 66.384L161.512 69.4127L164.823 70.5631V67.1473Z" fill="#FFB573"/>
<path d="M199.012 70.716L199.398 67.0234L195.985 67.8256C195.985 67.8256 195.936 71.2867 197.741 71.8384L199.012 70.716Z" fill="#FFB573"/>
<path d="M197.754 64.4387L195.53 65.477L195.985 67.8256L199.397 67.0235L197.754 64.4387Z" fill="#FFB573"/>
<path d="M182.806 72.7223C182.966 77.0918 183.128 78.938 181.153 81.3834C178.183 85.0612 172.781 84.3027 171.318 80.0689C170.001 76.258 169.96 69.7525 174.042 67.6053C178.063 65.4908 182.645 68.3523 182.806 72.7223Z" fill="#FFB573"/>
<path d="M180.902 81.3748C185.191 79.5212 188.013 75.6125 186.822 69.5009C185.682 63.6539 181.735 63.0763 180.104 64.2893C178.474 65.5023 174.409 63.6944 171.97 65.7468C167.744 69.3031 171.739 73.1371 173.821 75.4089C175.064 77.9642 176.693 83.1937 180.902 81.3748Z" fill="#263238"/>
<path d="M179.121 68.4522C180.568 70.5483 183.344 71.14 185.322 69.774C187.3 68.4085 187.73 65.6023 186.282 63.5062C184.835 61.4101 182.058 60.8183 180.081 62.1843C178.103 63.5498 177.673 66.356 179.121 68.4522Z" fill="#407BFF"/>
<path d="M180.234 64.6992C179.615 61.176 182.949 58.4592 187.407 59.7721C191.865 61.085 189.507 65.0368 188.592 68.1928C187.678 71.3488 190.077 74.3549 191.08 71.9511C192.082 69.5478 190.397 68.8056 190.397 68.8056C190.397 68.8056 195.131 70.0328 190.733 75.3685C186.336 80.7048 182.355 74.8126 183.432 71.3352C184.302 68.5253 180.82 68.0293 180.234 64.6992Z" fill="#263238"/>
<path d="M175.78 66.0304C173.745 64.9689 170.298 64.1105 168.337 67.4101C167.409 68.9702 167.769 71.0863 167.769 71.0863L173.759 71.485L175.78 66.0304Z" fill="#263238"/>
<path d="M167.063 70.0518C167.061 70.0518 167.058 70.0518 167.055 70.0513C166.982 70.047 166.928 69.9845 166.932 69.9119C166.937 69.8224 167.082 67.7063 168.359 66.3787C171.447 63.1712 175.066 65.8317 176.102 66.7238C176.157 66.7711 176.163 66.8542 176.115 66.9095C176.067 66.9647 175.985 66.9705 175.93 66.9231C174.938 66.0694 171.476 63.5199 168.549 66.5612C167.34 67.8179 167.195 69.9071 167.194 69.9282C167.19 69.9976 167.132 70.0518 167.063 70.0518Z" fill="#263238"/>
<path d="M174.554 75.2355C174.548 76.0866 174.166 76.9197 173.684 77.4852C172.957 78.3352 172.123 77.9165 171.933 76.9739C171.761 76.1255 171.931 74.6611 172.85 74.1477C173.755 73.6422 174.561 74.2624 174.554 75.2355Z" fill="#FFB573"/>
<path d="M173.607 115.258C173.607 115.258 173.888 145.842 176.541 162.885C178.684 176.65 182.65 208.483 182.65 208.483H188.658C188.658 208.483 189.245 177.752 188.157 164.137C185.405 129.685 192.508 123.245 186.776 115.258H173.607Z" fill="#263238"/>
<path opacity="0.1" d="M173.607 115.258C173.607 115.258 173.888 145.842 176.541 162.885C178.684 176.65 182.65 208.483 182.65 208.483H188.658C188.658 208.483 189.245 177.752 188.157 164.137C185.405 129.685 192.508 123.245 186.776 115.258H173.607Z" fill="white"/>
<path opacity="0.3" d="M176.765 129.133C178.874 138.364 177.191 152.903 176.039 159.304C174.819 149.584 174.204 136.986 173.898 127.755C174.987 125.988 176.018 125.872 176.765 129.133Z" fill="black"/>
<path d="M181.828 208.602H189.481L189.882 205.918L181.784 205.644L181.828 208.602Z" fill="#407BFF"/>
<path d="M184.012 89.4421C184.732 88.0109 188.601 87.1104 190.716 87.1135L192.3 94.1435C192.3 94.1435 188.085 100.398 186.333 99.7344C184.263 98.9522 182.47 92.5087 184.012 89.4421Z" fill="#407BFF"/>
<path opacity="0.4" d="M184.012 89.4421C184.732 88.0109 188.601 87.1104 190.716 87.1135L192.3 94.1435C192.3 94.1435 188.085 100.398 186.333 99.7344C184.263 98.9522 182.47 92.5087 184.012 89.4421Z" fill="black"/>
<path d="M179.551 206.883C179.57 206.852 179.571 206.812 179.554 206.78C179.534 206.741 179.49 206.719 179.446 206.725C179.225 206.758 177.278 207.068 177.015 207.624C176.964 207.732 176.971 207.845 177.036 207.953C177.143 208.132 177.295 208.233 177.487 208.252C178.125 208.318 179.046 207.433 179.539 206.899C179.543 206.894 179.547 206.888 179.551 206.883ZM177.215 207.691C177.395 207.396 178.402 207.124 179.17 206.983C178.476 207.688 177.865 208.081 177.507 208.044C177.382 208.031 177.286 207.966 177.214 207.845C177.185 207.797 177.182 207.757 177.203 207.713C177.207 207.705 177.211 207.698 177.215 207.691Z" fill="#407BFF"/>
<path d="M179.551 206.883C179.556 206.876 179.559 206.869 179.561 206.862C179.573 206.827 179.565 206.788 179.541 206.76C179.508 206.722 178.728 205.823 178.009 205.776C177.789 205.762 177.596 205.827 177.436 205.971C177.22 206.164 177.238 206.333 177.292 206.439C177.52 206.891 178.919 207.048 179.484 206.931C179.512 206.924 179.536 206.907 179.551 206.883ZM177.492 206.221C177.508 206.194 177.535 206.162 177.575 206.126C177.694 206.02 177.831 205.973 177.995 205.984C178.468 206.015 179.005 206.504 179.249 206.753C178.626 206.805 177.615 206.616 177.478 206.345C177.471 206.329 177.45 206.289 177.492 206.221Z" fill="#407BFF"/>
<path d="M184.143 205.017L180.114 206.807L178.318 203.069L175.971 198.175L175.696 197.606L179.721 195.814L180.033 196.454L182.308 201.194L184.143 205.017Z" fill="#FFB573"/>
<path opacity="0.2" d="M182.308 201.194L178.318 203.069L175.972 198.175L180.033 196.454L182.308 201.194Z" fill="black"/>
<path d="M168.882 115.258C168.882 115.258 156.009 147.258 159.498 162.326C162.652 175.944 176.595 201.734 176.595 201.734L181.987 199.028C181.987 199.028 173.367 167.895 172.432 161.132C170.612 147.972 182.308 129.397 182.308 115.258H168.882Z" fill="#263238"/>
<path opacity="0.1" d="M168.882 115.258C168.882 115.258 156.009 147.258 159.498 162.326C162.652 175.944 176.595 201.734 176.595 201.734L181.987 199.028C181.987 199.028 173.367 167.895 172.432 161.132C170.612 147.972 182.308 129.397 182.308 115.258H168.882Z" fill="white"/>
<path d="M179.395 206.246L183.397 203.333C183.542 203.227 183.734 203.242 183.858 203.369L186.618 206.204C186.905 206.498 186.848 207.015 186.508 207.253C185.096 208.245 184.363 208.653 182.604 209.933C181.521 210.721 179.363 212.464 177.868 213.552C176.406 214.616 175.217 213.22 175.743 212.633C178.098 210.001 178.594 208.373 178.959 206.898C179.025 206.633 179.182 206.401 179.395 206.246Z" fill="#263238"/>
<path d="M176.248 202.875L183.208 199.692L182.315 196.856L174.862 200.255L176.248 202.875Z" fill="#407BFF"/>
<path d="M172.299 89.0834C171.721 87.589 166.693 85.95 164.171 85.3777L163.062 93.6716C163.062 93.6716 167.182 99.5918 168.991 99.1021C171.126 98.524 173.536 92.2851 172.299 89.0834Z" fill="#407BFF"/>
<path opacity="0.4" d="M172.299 89.0834C171.721 87.589 166.693 85.95 164.171 85.3777L163.062 93.6716C163.062 93.6716 167.182 99.5918 168.991 99.1021C171.126 98.524 173.536 92.2851 172.299 89.0834Z" fill="black"/>
<path d="M166.777 88.6662C166.777 88.6662 164.678 89.4053 168.882 115.258C175.983 115.258 183.322 115.258 186.776 115.258C186.476 107.975 186.468 103.485 189.948 88.5384C189.948 88.5384 186.199 87.7226 182.35 87.5375C179.338 87.3923 176.871 87.296 174.224 87.538C170.735 87.8562 166.777 88.6662 166.777 88.6662Z" fill="#5BA5C8"/>
<path opacity="0.4" d="M166.777 88.6662C166.777 88.6662 164.678 89.4053 168.882 115.258C175.983 115.258 183.322 115.258 186.776 115.258C186.476 107.975 186.468 103.485 189.948 88.5384C189.948 88.5384 186.199 87.7226 182.35 87.5375C179.338 87.3923 176.871 87.296 174.224 87.538C170.735 87.8562 166.777 88.6662 166.777 88.6662Z" fill="black"/>
<path d="M187.044 114.208L187.851 115.81C187.913 115.934 187.766 116.06 187.559 116.06H168.793C168.632 116.06 168.498 115.982 168.488 115.88L168.327 114.278C168.316 114.167 168.456 114.073 168.632 114.073H186.753C186.886 114.074 187.003 114.128 187.044 114.208Z" fill="#407BFF"/>
<path opacity="0.3" d="M187.044 114.208L187.851 115.81C187.913 115.934 187.766 116.06 187.559 116.06H168.793C168.632 116.06 168.498 115.982 168.488 115.88L168.327 114.278C168.316 114.167 168.456 114.073 168.632 114.073H186.753C186.886 114.074 187.003 114.128 187.044 114.208Z" fill="white"/>
<path d="M184.61 116.234H185.096C185.193 116.234 185.266 116.184 185.259 116.123L185.032 114.043C185.025 113.982 184.941 113.932 184.844 113.932H184.358C184.262 113.932 184.188 113.982 184.195 114.043L184.423 116.123C184.429 116.184 184.514 116.234 184.61 116.234Z" fill="#263238"/>
<path d="M172.848 116.234H173.333C173.43 116.234 173.504 116.184 173.497 116.123L173.269 114.043C173.262 113.982 173.178 113.932 173.081 113.932H172.596C172.499 113.932 172.425 113.982 172.432 114.043L172.66 116.123C172.666 116.184 172.751 116.234 172.848 116.234Z" fill="#263238"/>
</g>
</g>
<defs>
<clipPath id="clip0_3001_39972">
<rect width="1440" height="950" fill="white" transform="translate(-720 -332)"/>
</clipPath>
</defs>
</svg>
