<svg width="44" height="44" viewBox="0 0 44 44" fill="none" xmlns="http://www.w3.org/2000/svg">
<circle cx="22" cy="22" r="22" fill="#F1F5F8"/>
<path d="M17.3346 13.834H15.0013C14.3825 13.834 13.789 14.0798 13.3514 14.5174C12.9138 14.955 12.668 15.5485 12.668 16.1673V30.1673C12.668 30.7862 12.9138 31.3796 13.3514 31.8172C13.789 32.2548 14.3825 32.5007 15.0013 32.5007H21.6478M29.0013 24.334V29.0007H33.668M29.0013 20.834V16.1673C29.0013 15.5485 28.7555 14.955 28.3179 14.5174C27.8803 14.0798 27.2868 13.834 26.668 13.834H24.3346" stroke="#1C1C1C" stroke-width="2" stroke-linecap="round" stroke-linejoin="round"/>
<path d="M17.3359 20.8333H22.0026M17.3359 25.5H20.8359M17.3359 13.8333C17.3359 13.2145 17.5818 12.621 18.0194 12.1834C18.4569 11.7458 19.0504 11.5 19.6693 11.5H22.0026C22.6214 11.5 23.2149 11.7458 23.6525 12.1834C24.0901 12.621 24.3359 13.2145 24.3359 13.8333C24.3359 14.4522 24.0901 15.0457 23.6525 15.4832C23.2149 15.9208 22.6214 16.1667 22.0026 16.1667H19.6693C19.0504 16.1667 18.4569 15.9208 18.0194 15.4832C17.5818 15.0457 17.3359 14.4522 17.3359 13.8333ZM24.3359 29C24.3359 30.2377 24.8276 31.4247 25.7028 32.2998C26.5779 33.175 27.7649 33.6667 29.0026 33.6667C30.2403 33.6667 31.4273 33.175 32.3024 32.2998C33.1776 31.4247 33.6693 30.2377 33.6693 29C33.6693 27.7623 33.1776 26.5753 32.3024 25.7002C31.4273 24.825 30.2403 24.3333 29.0026 24.3333C27.7649 24.3333 26.5779 24.825 25.7028 25.7002C24.8276 26.5753 24.3359 27.7623 24.3359 29Z" stroke="#1C1C1C" stroke-width="2" stroke-linecap="round" stroke-linejoin="round"/>
</svg>
