<svg width="44" height="44" viewBox="0 0 44 44" fill="none" xmlns="http://www.w3.org/2000/svg">
<circle cx="22" cy="22" r="22" fill="#F1F5F8"/>
<path d="M18.4974 20.8327C19.7861 20.8327 20.8307 19.788 20.8307 18.4993C20.8307 17.2107 19.7861 16.166 18.4974 16.166C17.2087 16.166 16.1641 17.2107 16.1641 18.4993C16.1641 19.788 17.2087 20.8327 18.4974 20.8327Z" stroke="#1C1C1C" stroke-width="2"/>
<path d="M23.1654 25.4993C23.1654 26.7885 23.1654 27.8327 18.4987 27.8327C13.832 27.8327 13.832 26.7885 13.832 25.4993C13.832 24.2102 15.9204 23.166 18.4987 23.166C21.077 23.166 23.1654 24.2102 23.1654 25.4993Z" stroke="#1C1C1C" stroke-width="2"/>
<path d="M33.6654 21.9993C33.6654 26.3988 33.6654 28.5992 32.298 29.9653C30.9319 31.3327 28.7315 31.3327 24.332 31.3327H19.6654C15.2659 31.3327 13.0655 31.3327 11.6994 29.9653C10.332 28.5992 10.332 26.3988 10.332 21.9993C10.332 17.5998 10.332 15.3995 11.6994 14.0333C13.0655 12.666 15.2659 12.666 19.6654 12.666H24.332C28.7315 12.666 30.9319 12.666 32.298 14.0333C32.8464 14.5817 33.1742 15.263 33.3714 16.166M30.1654 21.9993H25.4987M30.1654 18.4993H24.332M30.1654 25.4993H26.6654" stroke="#1C1C1C" stroke-width="2" stroke-linecap="round"/>
</svg>
